
        <svg xmlns="http://www.w3.org/2000/svg" xmlns:xlink="http://www.w3.org/1999/xlink" version="1.1" width="3176.470588235294" height="3139.4337762188843" viewBox="0 0 3176.470588235294 3139.4337762188843">
			
			<g transform="scale(8.823529411764707) translate(10, 10)">
				<defs id="SvgjsDefs1431"><linearGradient id="SvgjsLinearGradient1440"><stop id="SvgjsStop1441" stop-color="#8f5e25" offset="0"/><stop id="SvgjsStop1442" stop-color="#fbf4a1" offset="0.5"/><stop id="SvgjsStop1443" stop-color="#8f5e25" offset="1"/></linearGradient><linearGradient id="SvgjsLinearGradient1444"><stop id="SvgjsStop1445" stop-color="#8f5e25" offset="0"/><stop id="SvgjsStop1446" stop-color="#fbf4a1" offset="0.5"/><stop id="SvgjsStop1447" stop-color="#8f5e25" offset="1"/></linearGradient><linearGradient id="SvgjsLinearGradient1448"><stop id="SvgjsStop1449" stop-color="#8f5e25" offset="0"/><stop id="SvgjsStop1450" stop-color="#fbf4a1" offset="0.5"/><stop id="SvgjsStop1451" stop-color="#8f5e25" offset="1"/></linearGradient></defs><g id="SvgjsG1432" featureKey="rootContainer" transform="matrix(3.223262323815178,0,0,3.223262323815178,-0.12092425074844171,0.09241167501181027)" fill="#fff"><path xmlns="http://www.w3.org/2000/svg" d="M104.6 41.3a52.2 52.2 0 0 0-3.5-11.2A51.1 51.1 0 0 0 44.3 1a49.6 49.6 0 0 0-5.7 1.5 49.1 49.1 0 0 0-7.9 2.7A51.6 51.6 0 0 0 6.3 77a53.7 53.7 0 0 0 4.1 6.4 57 57 0 0 0 5 5.7 51.7 51.7 0 0 0 55.3 11.5l3.3-1.4 3-1.5a50.9 50.9 0 0 0 5.8-3.8l2.7-2.1 1.2-1.1 1.1-.9 2-1.8.7-.6.6-.7 1.8-2a48.5 48.5 0 0 0 5.9-8.3 50.4 50.4 0 0 0 5.6-14.7 51.6 51.6 0 0 0 .2-20.4zM87.1 88.6l-1.2 1.1-1.2 1.1-2.6 2.1a49.5 49.5 0 0 1-5.7 3.6l-3 1.5-3.2 1.3-4.9 1.6h-.5a50.9 50.9 0 0 1-20.3.1 51.8 51.8 0 0 1-11.1-3.6A50.5 50.5 0 0 1 22.9 91a52 52 0 0 1-9.1-9.4 50.3 50.3 0 0 1-3.7-5.7c-.6-1-1.1-2-1.6-3.1s-1-2.1-1.3-3.2a50.6 50.6 0 0 1 8.6-50.8l.8-.8.5-.6.6-.6 1.2-1.1 2.4-2.1A50.5 50.5 0 0 1 62.4 3.2a48.5 48.5 0 0 1 14.7 5.2 47 47 0 0 1 8.3 5.8l2 1.8.7.6.6.7 1.8 2a49.7 49.7 0 0 1 11.3 22.9 50.8 50.8 0 0 1-.1 20.2 51.6 51.6 0 0 1-3.6 11 50.2 50.2 0 0 1-6.6 10.5l-2.1 2.4zm-44.9 13a50.1 50.1 0 0 1-13.7-5 51.8 51.8 0 0 1-6.2-4 55.2 55.2 0 0 1-5.5-4.8 49.9 49.9 0 0 1-11-53.2c.4-1.1.9-2.1 1.3-3.1l.6-1.3a50.2 50.2 0 0 0-3.4 11 51.3 51.3 0 0 0 2.4 28.5c.4 1.1.9 2.2 1.4 3.2s1 2.1 1.6 3.1a50.6 50.6 0 0 0 3.7 5.8 51.5 51.5 0 0 0 9.2 9.5 50.9 50.9 0 0 0 10.7 6.5 51 51 0 0 0 28.7 3.9 50.3 50.3 0 0 1-19.8-.1zm61.9-39.9a50.2 50.2 0 0 1-5.5 14.7 48.4 48.4 0 0 1-5.8 8.3l-1.8 2-.6.7-.7.6-1.9 1.7h.2l2.3-2.4 2.1-2.5A51.3 51.3 0 0 0 98.9 74a51.4 51.4 0 0 0 3.2-31.6 49.6 49.6 0 0 0-2.5-8.2 49.4 49.4 0 0 0-3.1-6.5 48.7 48.7 0 0 0-5.9-8.3l-1.8-2-.6-.7-.7-.6-2-1.8A49.9 49.9 0 0 0 77.3 8a49.3 49.3 0 0 0-6.5-3.2 49.8 49.8 0 0 0-8.2-2.6A52.2 52.2 0 0 0 49.9 1a50.8 50.8 0 0 1 22.7 3.2l3.2 1.3 3.1 1.6a50.1 50.1 0 0 1 5.7 3.7l2.6 2.1 1.2 1.1 1.2 1.1 2.3 2.3 2.1 2.4a50.4 50.4 0 0 1 6.5 10.5 51.6 51.6 0 0 1 3.6 11 51.1 51.1 0 0 1 0 20.3z"/></g><g id="SvgjsG1433" featureKey="symbolFeature-0" transform="matrix(1.1499885941683012,0,0,1.1499885941683012,112.68030317411136,109.04772449485326)" fill="#fff"><g xmlns="http://www.w3.org/2000/svg"><path d="M45.295,1.626c0-0.526-0.428-0.953-0.953-0.953h-4.11c-0.527,0-0.954,0.427-0.954,0.953v1.147l6.017,4.683   V1.626z"/><path d="M61.346,1.626c0-0.526-0.427-0.953-0.953-0.953h-4.11c-0.525,0-0.953,0.427-0.953,0.953v5.831l6.017-4.683   V1.626z"/><path d="M99.326,38.598h-3.478V26.439h3.297c0.311,0,0.408-0.419,0.128-0.556l-8.371-5.109   c-0.751-0.366-1.576-0.556-2.412-0.556h-2.1v-1.511h4.815c0.485,0,0.682-0.626,0.282-0.903L90.61,17.2L68.873,0.365   c-0.783-0.542-1.828-0.542-2.612,0l-15.982,12.36L34.296,0.365c-0.784-0.542-1.829-0.542-2.613,0L9.946,17.2l-0.877,0.605   c-0.4,0.276-0.205,0.903,0.281,0.903h4.816v1.511h-2.1c-0.835,0-1.661,0.19-2.412,0.556l-8.372,5.109   c-0.28,0.136-0.183,0.556,0.128,0.556h3.297v12.159H1.23c-0.525,0-0.952,0.426-0.952,0.952v0.535c0,0.526,0.433,0.953,0.953,0.953   h33.583h15.464h15.465c0,0,33.118,0,33.682,0c0.442,0,0.854-0.427,0.854-0.953V39.55C100.278,39.024,99.852,38.598,99.326,38.598z    M68.834,14.06l5.573-4.409c0.188-0.176,0.479-0.176,0.669,0l5.572,4.409c0.119,0.111,0.04,0.312-0.123,0.312h-1.397l-4.387-3.301   l-4.387,3.301h-1.397C68.794,14.372,68.715,14.171,68.834,14.06z M77.447,17.299h-1.933c-0.252,0-0.456-0.205-0.456-0.458v-1.339   c0-0.253,0.204-0.458,0.456-0.458h1.933c0.253,0,0.457,0.205,0.457,0.458v1.339C77.904,17.095,77.7,17.299,77.447,17.299z    M77.904,18.48v1.339c0,0.252-0.204,0.457-0.457,0.457h-1.933c-0.252,0-0.456-0.205-0.456-0.457V18.48   c0-0.252,0.204-0.457,0.456-0.457h1.933C77.7,18.023,77.904,18.228,77.904,18.48z M73.937,17.299h-1.933   c-0.252,0-0.458-0.205-0.458-0.458v-1.339c0-0.253,0.206-0.458,0.458-0.458h1.933c0.253,0,0.457,0.205,0.457,0.458v1.339   C74.394,17.095,74.189,17.299,73.937,17.299z M74.394,18.48v1.339c0,0.252-0.204,0.457-0.457,0.457h-1.933   c-0.252,0-0.458-0.205-0.458-0.457V18.48c0-0.252,0.206-0.457,0.458-0.457h1.933C74.189,18.023,74.394,18.228,74.394,18.48z    M19.908,14.06l5.573-4.409c0.188-0.176,0.48-0.176,0.668,0l5.573,4.409c0.119,0.111,0.041,0.312-0.123,0.312h-1.397l-4.387-3.301   l-4.387,3.301h-1.397C19.868,14.372,19.789,14.171,19.908,14.06z M28.553,17.299H26.62c-0.252,0-0.457-0.205-0.457-0.458v-1.339   c0-0.253,0.204-0.458,0.457-0.458h1.933c0.252,0,0.458,0.205,0.458,0.458v1.339C29.01,17.095,28.805,17.299,28.553,17.299z    M29.01,18.48v1.339c0,0.252-0.205,0.457-0.458,0.457H26.62c-0.252,0-0.457-0.205-0.457-0.457V18.48   c0-0.252,0.204-0.457,0.457-0.457h1.933C28.805,18.023,29.01,18.228,29.01,18.48z M25.042,17.299h-1.932   c-0.253,0-0.458-0.205-0.458-0.458v-1.339c0-0.253,0.205-0.458,0.458-0.458h1.932c0.252,0,0.458,0.205,0.458,0.458v1.339   C25.499,17.095,25.294,17.299,25.042,17.299z M25.499,18.48v1.339c0,0.252-0.205,0.457-0.458,0.457h-1.932   c-0.253,0-0.458-0.205-0.458-0.457V18.48c0-0.252,0.205-0.457,0.458-0.457h1.932C25.294,18.023,25.499,18.228,25.499,18.48z    M23.268,38.598H9.028c0-3.205,0-6.409,0-9.614c1.131-1.206,2.496-2.048,3.953-2.545c0.88-0.301,1.792-0.471,2.712-0.514   c0.304-0.014,0.607-0.014,0.911,0c0.919,0.043,1.831,0.212,2.711,0.514c1.457,0.497,2.821,1.34,3.953,2.545   C23.268,32.189,23.268,35.394,23.268,38.598z M38.969,38.598h-3.625H24.946c0-3.205,0-6.409,0-9.614   c1.131-1.206,2.496-2.048,3.953-2.545c0.879-0.301,1.792-0.471,2.712-0.514h-0.265c0.304-0.014,0.872-0.014,1.176,0   c0.919,0.043,1.832,0.212,2.711,0.514c1.366,0.466,2.648,1.241,3.736,2.328V38.598z M39.825,19.819   c0,0.252-0.205,0.457-0.458,0.457h-1.932c-0.253,0-0.458-0.205-0.458-0.457V18.48c0-0.252,0.205-0.457,0.458-0.457h1.932   c0.252,0,0.458,0.205,0.458,0.457V19.819z M39.825,16.842c0,0.253-0.205,0.458-0.458,0.458h-1.932   c-0.253,0-0.458-0.205-0.458-0.458v-1.339c0-0.253,0.205-0.458,0.458-0.458h1.932c0.252,0,0.458,0.205,0.458,0.458V16.842z    M40.489,19.819V18.48c0-0.252,0.205-0.457,0.457-0.457h1.933c0.253,0,0.458,0.205,0.458,0.457v1.339   c0,0.252-0.205,0.457-0.458,0.457h-1.933C40.694,20.276,40.489,20.072,40.489,19.819z M40.489,16.842v-1.339   c0-0.253,0.205-0.458,0.457-0.458h1.933c0.253,0,0.458,0.205,0.458,0.458v1.339c0,0.253-0.205,0.458-0.458,0.458h-1.933   C40.694,17.299,40.489,17.095,40.489,16.842z M46.065,38.598h-5.324v-9.924c0.665-0.378,1.603-0.624,2.662-0.632   c1.06,0.008,1.998,0.253,2.662,0.632V38.598z M45.926,14.372h-1.397l-4.387-3.301l-4.387,3.301h-1.397   c-0.164,0-0.243-0.201-0.123-0.312l5.573-4.409c0.188-0.176,0.48-0.176,0.668,0l5.573,4.409   C46.168,14.171,46.089,14.372,45.926,14.372z M52.917,38.598h-2.639h-2.639v-9.924c0.659-0.375,1.589-0.62,2.639-0.631   c1.05,0.011,1.979,0.255,2.639,0.631V38.598z M59.815,38.598h-5.324v-9.924c0.664-0.378,1.603-0.624,2.662-0.632   c1.06,0.008,1.998,0.253,2.662,0.632V38.598z M60.067,19.819c0,0.252-0.204,0.457-0.457,0.457h-1.933   c-0.252,0-0.458-0.205-0.458-0.457V18.48c0-0.252,0.206-0.457,0.458-0.457h1.933c0.253,0,0.457,0.205,0.457,0.457V19.819z    M60.067,16.842c0,0.253-0.204,0.458-0.457,0.458h-1.933c-0.252,0-0.458-0.205-0.458-0.458v-1.339c0-0.253,0.206-0.458,0.458-0.458   h1.933c0.253,0,0.457,0.205,0.457,0.458V16.842z M56.028,14.372h-1.397c-0.163,0-0.242-0.201-0.123-0.312l5.573-4.409   c0.188-0.176,0.48-0.176,0.668,0l5.573,4.409c0.119,0.111,0.041,0.312-0.124,0.312h-1.396l-4.387-3.301L56.028,14.372z    M63.578,15.503v1.339c0,0.253-0.204,0.458-0.457,0.458h-1.933c-0.252,0-0.457-0.205-0.457-0.458v-1.339   c0-0.253,0.205-0.458,0.457-0.458h1.933C63.374,15.045,63.578,15.25,63.578,15.503z M60.731,19.819V18.48   c0-0.252,0.205-0.457,0.457-0.457h1.933c0.253,0,0.457,0.205,0.457,0.457v1.339c0,0.252-0.204,0.457-0.457,0.457h-1.933   C60.937,20.276,60.731,20.072,60.731,19.819z M75.611,38.598H65.212h-3.624v-9.831c1.087-1.087,2.37-1.862,3.736-2.328   c0.879-0.301,1.791-0.471,2.71-0.514c0.305-0.014,0.873-0.014,1.178,0h-0.266c0.92,0.043,1.832,0.212,2.712,0.514   c1.457,0.497,2.82,1.34,3.953,2.545C75.611,32.189,75.611,35.394,75.611,38.598z M91.529,38.598h-14.24c0-3.205,0-6.409,0-9.614   c1.131-1.206,2.496-2.048,3.952-2.545c0.88-0.301,1.792-0.471,2.712-0.514c0.304-0.014,0.607-0.014,0.911,0   c0.92,0.043,1.832,0.212,2.712,0.514c1.456,0.497,2.821,1.34,3.953,2.545C91.529,32.189,91.529,35.394,91.529,38.598z"/><path d="M28.092,29.003h-1.49c-0.194,0-0.353,0.157-0.353,0.353v1.032c0,0.195,0.159,0.353,0.353,0.353h1.49   c0.195,0,0.353-0.158,0.353-0.353v-1.032C28.444,29.16,28.287,29.003,28.092,29.003z"/><path d="M31.22,29.003h-1.49c-0.195,0-0.353,0.157-0.353,0.353v1.032c0,0.195,0.158,0.353,0.353,0.353h1.49   c0.195,0,0.353-0.158,0.353-0.353v-1.032C31.573,29.16,31.415,29.003,31.22,29.003z"/><path d="M34.349,29.003h-1.491c-0.195,0-0.353,0.157-0.353,0.353v1.032c0,0.195,0.158,0.353,0.353,0.353h1.491   c0.194,0,0.352-0.158,0.352-0.353v-1.032C34.7,29.16,34.543,29.003,34.349,29.003z"/><path d="M35.986,30.741h1.49c0.195,0,0.352-0.158,0.352-0.353v-1.032c0-0.196-0.157-0.353-0.352-0.353h-1.49   c-0.195,0-0.353,0.157-0.353,0.353v1.032C35.633,30.583,35.792,30.741,35.986,30.741z"/><path d="M12.208,29.003h-1.49c-0.195,0-0.353,0.157-0.353,0.353v1.032c0,0.195,0.158,0.353,0.353,0.353h1.49   c0.194,0,0.352-0.158,0.352-0.353v-1.032C12.56,29.16,12.401,29.003,12.208,29.003z"/><path d="M15.335,29.003h-1.49c-0.194,0-0.353,0.157-0.353,0.353v1.032c0,0.195,0.158,0.353,0.353,0.353h1.49   c0.195,0,0.353-0.158,0.353-0.353v-1.032C15.688,29.16,15.53,29.003,15.335,29.003z"/><path d="M18.463,29.003h-1.49c-0.195,0-0.353,0.157-0.353,0.353v1.032c0,0.195,0.158,0.353,0.353,0.353h1.49   c0.194,0,0.353-0.158,0.353-0.353v-1.032C18.816,29.16,18.658,29.003,18.463,29.003z"/><path d="M20.102,30.741h1.49c0.195,0,0.353-0.158,0.353-0.353v-1.032c0-0.196-0.157-0.353-0.353-0.353h-1.49   c-0.195,0-0.353,0.157-0.353,0.353v1.032C19.749,30.583,19.906,30.741,20.102,30.741z"/><path d="M64.537,29.003h-1.489c-0.194,0-0.354,0.157-0.354,0.353v1.032c0,0.195,0.159,0.353,0.354,0.353h1.489   c0.194,0,0.354-0.158,0.354-0.353v-1.032C64.891,29.16,64.731,29.003,64.537,29.003z"/><path d="M67.665,29.003h-1.49c-0.193,0-0.352,0.157-0.352,0.353v1.032c0,0.195,0.158,0.353,0.352,0.353h1.49   c0.195,0,0.353-0.158,0.353-0.353v-1.032C68.018,29.16,67.86,29.003,67.665,29.003z"/><path d="M70.794,29.003h-1.49c-0.195,0-0.353,0.157-0.353,0.353v1.032c0,0.195,0.157,0.353,0.353,0.353h1.49   c0.194,0,0.353-0.158,0.353-0.353v-1.032C71.146,29.16,70.988,29.003,70.794,29.003z"/><path d="M72.432,30.741h1.49c0.195,0,0.353-0.158,0.353-0.353v-1.032c0-0.196-0.157-0.353-0.353-0.353h-1.49   c-0.194,0-0.354,0.157-0.354,0.353v1.032C72.078,30.583,72.237,30.741,72.432,30.741z"/><path d="M80.456,29.003h-1.49c-0.195,0-0.354,0.157-0.354,0.353v1.032c0,0.195,0.158,0.353,0.354,0.353h1.49   c0.194,0,0.352-0.158,0.352-0.353v-1.032C80.808,29.16,80.65,29.003,80.456,29.003z"/><path d="M83.584,29.003h-1.49c-0.194,0-0.353,0.157-0.353,0.353v1.032c0,0.195,0.158,0.353,0.353,0.353h1.49   c0.194,0,0.353-0.158,0.353-0.353v-1.032C83.937,29.16,83.778,29.003,83.584,29.003z"/><path d="M86.712,29.003h-1.49c-0.194,0-0.353,0.157-0.353,0.353v1.032c0,0.195,0.158,0.353,0.353,0.353h1.49   c0.194,0,0.353-0.158,0.353-0.353v-1.032C87.064,29.16,86.906,29.003,86.712,29.003z"/><path d="M88.351,30.741h1.489c0.194,0,0.353-0.158,0.353-0.353v-1.032c0-0.196-0.158-0.353-0.353-0.353h-1.489   c-0.196,0-0.354,0.157-0.354,0.353v1.032C87.997,30.583,88.154,30.741,88.351,30.741z"/></g></g><g id="SvgjsG1434" featureKey="nameFeature-0" transform="matrix(0.9430503959103592,0,0,0.9430503959103592,68.88262361186028,166.65767677859995)" fill="#fff"><path d="M31 12 c0.44 0 0.6 1.28 0.08 1.36 c-1.6 0.24 -2.64 0.88 -4.08 4.24 l-6.76 15.72 c-1.4 3.24 -2.04 5.08 -2.04 6.68 c0 0.24 -2.76 0.88 -2.88 0.6 l-9.72 -22.96 c-1.44 -3.44 -2.52 -4.04 -4.08 -4.28 c-0.52 -0.08 -0.4 -1.36 0.12 -1.36 l10.52 0 c0.52 0 0.6 1.28 0.12 1.36 c-1.48 0.24 -2.96 0.88 -1.56 4.24 l6.76 16.24 l6.76 -16.24 c1.44 -3.44 -0.16 -3.96 -2 -4.24 c-0.52 -0.08 -0.4 -1.36 0.12 -1.36 l8.64 0 z M35.849000000000004 16.92 c-0.88 0 -3.04 -1.88 -3.04 -3.04 s2.16 -3.04 3.04 -3.04 s3.04 1.88 3.04 3.04 s-2.16 3.04 -3.04 3.04 z M31.489 40 c-0.32 0 -0.6 -1.16 -0.28 -1.2 c1.24 -0.16 2.8 -0.72 2.8 -3.04 l0 -8.84 c0 -2.44 -0.64 -3.04 -2.72 -3.32 c-0.32 -0.04 -0.2 -1.08 0.08 -1.16 l7.08 -1.68 c0.4 -0.08 0.6 0.2 0.48 0.72 c-0.28 1.28 -0.64 3.64 -0.64 6.24 l0 8.04 c0 2.32 1.56 2.88 2.8 3.04 c0.28 0.04 0.04 1.2 -0.28 1.2 l-9.32 0 z M41.298 40 c-0.32 0 -0.6 -1.16 -0.28 -1.2 c1.2 -0.16 2.72 -0.72 2.72 -3.04 l0 -17.6 c0 -4.4 -0.6 -5.24 -3.08 -5.52 c-0.32 -0.04 -0.2 -1.08 0.08 -1.12 l7.44 -1.6 c0.36 -0.08 0.68 0.2 0.56 0.72 c-0.28 1.28 -0.72 3.84 -0.72 9.12 l0 16 c0 2.32 1.52 2.88 2.76 3.04 c0.28 0.04 0.04 1.2 -0.28 1.2 l-9.2 0 z M56.627 40.64 c-2.76 0 -5.48 -1.64 -5.48 -4.88 c0 -2.16 1.28 -3.32 4.16 -4.24 l5.84 -1.88 c1.2 -0.4 1.56 -0.44 1.56 -1.44 l0 -1.6 c0 -2.48 -1.24 -2.76 -2.8 -2.76 c-2.12 0 -4.64 0.56 -6.12 0.72 c-0.36 0.04 -0.6 -0.16 -0.64 -0.44 l-0.08 -0.72 c-0.12 -1.04 5.96 -2.72 9 -2.72 c4.64 0 4.96 3.68 4.96 6.52 l0 8.44 c0 3.36 2.88 2 3.44 2.36 c0.2 0.12 0.28 0.4 0.28 0.56 c0 0.84 -3.4 2.08 -5.08 2.08 c-1.28 0 -2.08 -0.72 -3.04 -2.76 c-3.8 2.32 -4.64 2.76 -6 2.76 z M58.547 37.68 c2.04 0 4.2 -1.44 4.2 -3.48 l0 -3.12 c-0.24 0.16 -0.2 0.2 -0.96 0.44 l-4.04 1.36 c-1.28 0.44 -1.92 1.12 -1.92 2.32 c0 1.52 1.04 2.48 2.72 2.48 z M83.885 40.64 c-3.28 0 -8.28 -1.44 -7.8 -3.2 l0.4 -1.48 c1.12 -4.2 2.44 1.96 9.04 1.96 c3.36 0 5 -1.64 5 -3.96 c0 -1.88 -1.2 -2.68 -4.04 -4.44 l-3.88 -2.44 c-4.32 -2.72 -6.08 -4.4 -6.08 -7.4 c0 -4.92 4.8 -8.32 9.76 -8.32 c3.04 0 6.92 1.32 6.48 2.68 l-0.48 1.52 c-1.24 3.88 -2.24 -1.48 -7.72 -1.48 c-2.84 0 -4.32 1.44 -4.32 3.56 c0 1.8 1.08 2.8 3.76 4.44 l4.2 2.6 c4.24 2.64 5.96 4.44 5.96 7.32 c0 5 -4.92 8.64 -10.28 8.64 z M99.41400000000002 16.92 c-0.88 0 -3.04 -1.88 -3.04 -3.04 s2.16 -3.04 3.04 -3.04 s3.04 1.88 3.04 3.04 s-2.16 3.04 -3.04 3.04 z M95.05400000000002 40 c-0.32 0 -0.6 -1.16 -0.28 -1.2 c1.24 -0.16 2.8 -0.72 2.8 -3.04 l0 -8.84 c0 -2.44 -0.64 -3.04 -2.72 -3.32 c-0.32 -0.04 -0.2 -1.08 0.08 -1.16 l7.08 -1.68 c0.4 -0.08 0.6 0.2 0.48 0.72 c-0.28 1.28 -0.64 3.64 -0.64 6.24 l0 8.04 c0 2.32 1.56 2.88 2.8 3.04 c0.28 0.04 0.04 1.2 -0.28 1.2 l-9.32 0 z M138.543 38.8 c0.32 0.04 0.04 1.2 -0.24 1.2 l-8.8 0 c-0.28 0 -0.44 -1.16 -0.24 -1.2 c1.4 -0.28 2.24 -0.92 2.24 -3.04 l0 -7.68 c0 -3.36 -1.68 -4.12 -3.84 -4.12 c-1.48 0 -3.96 0.52 -3.96 1.52 l0 10.28 c0 2.32 1.32 2.92 2.4 3.04 c0.32 0.04 0.04 1.2 -0.24 1.2 l-8.44 0 c-0.28 0 -0.48 -1.16 -0.24 -1.2 c1.4 -0.24 2.24 -0.92 2.24 -3.04 l0 -7.68 c0 -3.36 -1.52 -4.12 -3.8 -4.12 c-1.52 0 -4 0.48 -4 1.52 l0 10.28 c0 2.12 1.08 2.84 2.4 3.04 c0.28 0.04 0.08 1.2 -0.24 1.2 l-8.92 0 c-0.32 0 -0.6 -1.16 -0.28 -1.2 c1.2 -0.16 2.76 -0.72 2.76 -3.04 l0 -9.6 c0 -1.92 -1.04 -2.36 -2.72 -2.56 c-0.32 -0.04 -0.16 -1.08 0.16 -1.16 l6.32 -1.76 c0.48 -0.12 0.68 0.2 0.68 0.6 c0 1.12 0.32 1.56 0.96 1.28 c1.64 -0.72 3.48 -1.88 5.72 -1.88 c2.2 0 3.64 1.04 4.44 2.4 c2.24 -1.28 5.2 -2.4 7.56 -2.4 c3.88 0 5.32 3 5.32 5.6 l0 9.48 c0 2.32 1.56 2.88 2.76 3.04 z M146.072 40.64 c-3.76 0 -4.84 -2.88 -4.84 -5.4 l0 -8.84 c0 -2 -1.56 -2.56 -2.72 -2.72 c-0.28 -0.04 -0.16 -1.04 0.16 -1.12 l6.36 -1.88 c0.48 -0.16 0.84 0.24 0.72 0.72 c-0.4 1.6 -0.24 3.28 -0.24 4.48 l0 8.04 c0 2.48 0.8 3.64 2.92 3.64 c2 0 5.52 -0.52 5.52 -2.88 l0 -8.28 c0 -2 -1.56 -2.56 -2.72 -2.72 c-0.28 -0.04 -0.16 -1.04 0.16 -1.12 l6.36 -1.88 c0.48 -0.16 0.84 0.24 0.72 0.72 c-0.4 1.6 -0.24 3.36 -0.24 4.56 l0 9.68 c0 3.4 2.88 2 3.44 2.36 c0.2 0.12 0.28 0.4 0.28 0.56 c0 0.84 -3.48 2.08 -5.16 2.08 c-1.28 0 -2.2 -2.84 -3.72 -2.08 c-1.6 0.8 -4.44 2.08 -7 2.08 z M161.441 40 c-0.32 0 -0.6 -1.16 -0.28 -1.2 c1.2 -0.16 2.72 -0.72 2.72 -3.04 l0 -17.6 c0 -4.4 -0.6 -5.24 -3.08 -5.52 c-0.32 -0.04 -0.2 -1.08 0.08 -1.12 l7.44 -1.6 c0.36 -0.08 0.68 0.2 0.56 0.72 c-0.28 1.28 -0.72 3.84 -0.72 9.12 l0 16 c0 2.32 1.52 2.88 2.76 3.04 c0.28 0.04 0.04 1.2 -0.28 1.2 l-9.2 0 z M180.121 40.68 c-2.4 -0.32 -8.2 -6.88 -10.52 -10.24 c-0.36 -0.52 -0.44 -0.92 0.12 -1.36 c3.36 -2.64 5.92 -4.92 4.12 -6.4 c-0.64 -0.52 -0.44 -1.28 0.24 -1.28 l8.48 0 c0.76 0 0.76 1.32 0 1.44 c-2.88 0.44 -5.8 2.08 -7.32 3.6 c-1.56 1.56 -1.96 2.24 -1.2 3.24 c2.28 3.04 7 8.2 9.68 8.52 c0.32 0.04 0.68 0.08 0.68 0.6 c0 0.4 -0.44 0.48 -0.96 0.68 z M189.93 40.64 c-2.76 0 -5.48 -1.64 -5.48 -4.88 c0 -2.16 1.28 -3.32 4.16 -4.24 l5.84 -1.88 c1.2 -0.4 1.56 -0.44 1.56 -1.44 l0 -1.6 c0 -2.48 -1.24 -2.76 -2.8 -2.76 c-2.12 0 -4.64 0.56 -6.12 0.72 c-0.36 0.04 -0.6 -0.16 -0.64 -0.44 l-0.08 -0.72 c-0.12 -1.04 5.96 -2.72 9 -2.72 c4.64 0 4.96 3.68 4.96 6.52 l0 8.44 c0 3.36 2.88 2 3.44 2.36 c0.2 0.12 0.28 0.4 0.28 0.56 c0 0.84 -3.4 2.08 -5.08 2.08 c-1.28 0 -2.08 -0.72 -3.04 -2.76 c-3.8 2.32 -4.64 2.76 -6 2.76 z M191.85 37.68 c2.04 0 4.2 -1.44 4.2 -3.48 l0 -3.12 c-0.24 0.16 -0.2 0.2 -0.96 0.44 l-4.04 1.36 c-1.28 0.44 -1.92 1.12 -1.92 2.32 c0 1.52 1.04 2.48 2.72 2.48 z M207.899 16.92 c-0.88 0 -3.04 -1.88 -3.04 -3.04 s2.16 -3.04 3.04 -3.04 s3.04 1.88 3.04 3.04 s-2.16 3.04 -3.04 3.04 z M203.539 40 c-0.32 0 -0.6 -1.16 -0.28 -1.2 c1.24 -0.16 2.8 -0.72 2.8 -3.04 l0 -8.84 c0 -2.44 -0.64 -3.04 -2.72 -3.32 c-0.32 -0.04 -0.2 -1.08 0.08 -1.16 l7.08 -1.68 c0.4 -0.08 0.6 0.2 0.48 0.72 c-0.28 1.28 -0.64 3.64 -0.64 6.24 l0 8.04 c0 2.32 1.56 2.88 2.8 3.04 c0.28 0.04 0.04 1.2 -0.28 1.2 l-9.32 0 z"/></g><g id="SvgjsG1435" featureKey="sloganFeature-0" transform="matrix(0.47847430998346446,0,0,0.47847430998346446,101.71278364347648,214.54873064123927)" fill="#fff"><path d="M0.98 24.3 c-0.3 0 -0.48 -0.68 -0.32 -0.7 c0.9 -0.1 1.86 -1.12 1.86 -3.48 l0 -11.7 c0 -1.4 -0.8 -1.68 -1.66 -1.8 c-0.16 -0.02 -0.04 -0.62 0.12 -0.62 l5.48 0 c0.16 0 0.28 0.6 0.12 0.62 c-0.86 0.12 -1.66 0.4 -1.66 1.8 l0 11.7 c0 2.02 -2.56 4.18 -3.94 4.18 z M21.6895 2.1000000000000014 c0.38 0 -0.08 1.2 -0.46 1.2 l-5.24 0 c-0.4 0 0.06 -1.2 0.48 -1.2 l5.22 0 z M19.049500000000002 20.32 c-2.82 0 -5.98 -1.5 -5.98 -5.56 l0 -6.28 c0 -1.26 -0.64 -1.68 -1.62 -1.8 c-0.16 -0.02 -0.04 -0.68 0.12 -0.68 l5.46 0 c0.16 0 0.28 0.66 0.12 0.68 c-0.8 0.1 -1.6 0.4 -1.6 1.8 l0 6.38 c0 2.8 1.62 4.1 3.74 4.1 c2.18 0 3.92 -1.3 3.92 -4.1 l0 -6.38 c0 -1.3 -0.74 -1.66 -1.72 -1.8 c-0.14 -0.02 -0.04 -0.68 0.12 -0.68 l4.5 0 c0.14 0 0.26 0.66 0.1 0.68 c-0.8 0.1 -1.6 0.4 -1.6 1.8 l0 6.26 c0 3.68 -2.38 5.58 -5.56 5.58 z M35.318999999999996 20.32 c-1.64 0 -4.14 -0.72 -3.9 -1.6 l0.2 -0.74 c0.56 -2.1 1.22 0.98 4.52 0.98 c1.68 0 2.5 -0.82 2.5 -1.98 c0 -0.94 -0.6 -1.34 -2.02 -2.22 l-1.94 -1.22 c-2.16 -1.36 -3.04 -2.2 -3.04 -3.7 c0 -2.46 2.4 -4.16 4.88 -4.16 c1.52 0 3.46 0.66 3.24 1.34 l-0.24 0.76 c-0.62 1.94 -1.12 -0.74 -3.86 -0.74 c-1.42 0 -2.16 0.72 -2.16 1.78 c0 0.9 0.54 1.4 1.88 2.22 l2.1 1.3 c2.12 1.32 2.98 2.22 2.98 3.66 c0 2.5 -2.46 4.32 -5.14 4.32 z M60.10849999999999 6 c0.14 0 0.26 0.66 0.1 0.68 c-0.8 0.1 -1.6 0.4 -1.6 1.8 l0 6.26 c0 2.8 -1.38 4.58 -3.44 5.26 l0.12 0 c-1.78 0.5 -3.82 1.1 -3.82 2.4 c0 0.58 0.4 0.96 1 0.96 c0.78 0 1.34 -0.64 1.46 -0.98 c0.1 -0.28 0.72 0.06 0.54 0.52 s-1.12 1.68 -2.68 1.68 c-0.92 0 -2.32 -0.42 -2.32 -1.8 s1.74 -2.12 2.86 -2.5 c-2.62 -0.24 -5.26 -1.8 -5.26 -5.52 l0 -6.28 c0 -1.26 -0.64 -1.68 -1.62 -1.8 c-0.16 -0.02 -0.04 -0.68 0.12 -0.68 l5.46 0 c0.16 0 0.28 0.66 0.12 0.68 c-0.8 0.1 -1.6 0.4 -1.6 1.8 l0 6.38 c0 2.8 1.62 4.1 3.74 4.1 c2.18 0 3.92 -1.3 3.92 -4.1 l0 -6.38 c0 -1.3 -0.74 -1.66 -1.72 -1.8 c-0.14 -0.02 -0.04 -0.68 0.12 -0.68 l4.5 0 z M79.46749999999999 1.620000000000001 l-1.92 2.7 c-0.12 0.16 -1.06 0.14 -1.16 0 l-1.92 -2.7 c-0.2 -0.28 0.54 -0.86 0.8 -0.62 l1.7 1.58 l1.7 -1.58 c0.26 -0.24 1 0.34 0.8 0.62 z M76.4275 20.32 c-1.64 0 -4.14 -0.72 -3.9 -1.6 l0.2 -0.74 c0.56 -2.1 1.22 0.98 4.52 0.98 c1.68 0 2.5 -0.82 2.5 -1.98 c0 -0.94 -0.6 -1.34 -2.02 -2.22 l-1.94 -1.22 c-2.16 -1.36 -3.04 -2.2 -3.04 -3.7 c0 -2.46 2.4 -4.16 4.88 -4.16 c1.52 0 3.46 0.66 3.24 1.34 l-0.24 0.76 c-0.62 1.94 -1.12 -0.74 -3.86 -0.74 c-1.42 0 -2.16 0.72 -2.16 1.78 c0 0.9 0.54 1.4 1.88 2.22 l2.1 1.3 c2.12 1.32 2.98 2.22 2.98 3.66 c0 2.5 -2.46 4.32 -5.14 4.32 z M101.27699999999999 6 c0.22 0 0.3 0.64 0.04 0.68 c-0.8 0.12 -1.32 0.44 -2.04 2.12 l-3.38 7.86 c-0.7 1.62 -1.02 2.54 -1.02 3.34 c0 0.12 -1.38 0.44 -1.44 0.3 l-4.86 -11.48 c-0.72 -1.72 -1.26 -2.02 -2.04 -2.14 c-0.26 -0.04 -0.2 -0.68 0.06 -0.68 l5.26 0 c0.26 0 0.3 0.64 0.06 0.68 c-0.74 0.12 -1.48 0.44 -0.78 2.12 l3.38 8.12 l3.38 -8.12 c0.72 -1.72 -0.08 -1.98 -1 -2.12 c-0.26 -0.04 -0.2 -0.68 0.06 -0.68 l4.32 0 z M105.98649999999999 20.04 c-0.2 0.02 -0.28 -0.68 -0.12 -0.72 c1.16 -0.3 2.06 -0.48 2.06 -1.96 l0 -8.88 c0 -1.28 -0.82 -1.62 -1.68 -1.84 c-0.16 -0.04 -0.06 -0.7 0.1 -0.68 c1.46 0.16 3.98 0.12 5.2 0.12 c1.82 0 3.14 -0.08 4.78 -0.12 c0.48 0 0.48 0.32 0.38 0.78 l-0.48 1.9 c-0.06 0.28 -0.56 0.28 -0.64 0 c-0.3 -0.98 -0.9 -1.54 -3.4 -1.54 c-1.4 0 -1.86 0.36 -1.86 1.4 l0 3.26 c0 0.52 0.26 0.62 0.66 0.62 l0.44 0 c1.62 0 3.02 -0.16 3.84 -0.9 c0.2 -0.18 0.64 -0.14 0.46 0.26 l-1.14 2.52 c-0.16 0.36 -0.46 0.32 -0.68 0.02 c-0.46 -0.64 -1.48 -0.9 -2.64 -0.9 l-0.28 0 c-0.4 0 -0.66 0.1 -0.66 0.62 l0 3.36 c0 1.14 0.48 1.56 2.14 1.56 c3.02 0 4.22 -1.38 4.7 -2.14 c0.14 -0.22 0.68 -0.12 0.68 0.22 c0 1.02 -0.86 3.04 -2.12 3.04 c-1.12 -0.06 -2.22 -0.12 -3.9 -0.12 c-1.84 0 -4.02 -0.06 -5.84 0.12 z M135.916 20.2 c-0.34 0 -0.52 -0.14 -0.74 -0.38 l-9.52 -9.96 l0 7.6 c0 1.36 0.8 1.58 1.94 1.86 c0.16 0.04 0.08 0.68 -0.12 0.68 l-4.74 0 c-0.16 0 -0.28 -0.62 -0.1 -0.68 c0.84 -0.28 1.64 -0.44 1.64 -1.86 l0 -7.76 c0 -1.42 -0.22 -2.1 -0.74 -2.8 c-0.18 -0.24 -0.36 -0.4 -0.36 -0.46 c0 -0.18 0.12 -0.44 0.4 -0.44 l1.48 0 c0.2 0 0.34 0.02 0.48 0.18 l9.32 9.86 l0 -7.52 c0 -1.42 -0.9 -1.58 -1.94 -1.84 c-0.16 -0.04 -0.08 -0.68 0.12 -0.68 l4.74 0 c0.16 0 0.26 0.64 0.1 0.68 c-0.88 0.26 -1.64 0.42 -1.64 1.84 l0 7.78 c0 1.32 0.04 2.78 0.24 3.52 c0.08 0.3 -0.24 0.38 -0.56 0.38 z M152.3455 1.620000000000001 l-1.92 2.7 c-0.12 0.16 -1.06 0.14 -1.16 0 l-1.92 -2.7 c-0.2 -0.28 0.54 -0.86 0.8 -0.62 l1.7 1.58 l1.7 -1.58 c0.26 -0.24 1 0.34 0.8 0.62 z M150.9655 20.32 c-3.36 0 -7.9 -1.96 -7.9 -7.06 c0 -3.46 2.12 -7.58 7.72 -7.58 c2.32 0 4.32 0.72 4.08 1.42 l-0.26 0.78 c-0.72 2.14 -1.5 -0.6 -5.06 -0.6 c-2.86 0 -4.26 1.86 -4.26 4.74 c0 4.5 3.42 6.38 6.16 6.38 c0.36 0 2.18 -0.28 3.22 -0.94 c0.16 -0.1 0.58 0.36 0.46 0.54 c-0.86 1.26 -3.54 2.32 -4.16 2.32 z M160.355 20 c-0.16 0 -0.28 -0.66 -0.12 -0.68 c1.02 -0.14 1.66 -0.54 1.66 -1.8 l0 -9.04 c0 -1.26 -0.64 -1.66 -1.66 -1.8 c-0.16 -0.02 -0.04 -0.68 0.12 -0.68 l5.48 0 c0.16 0 0.28 0.66 0.12 0.68 c-0.86 0.12 -1.66 0.4 -1.66 1.8 l0 9.04 c0 1.4 0.8 1.68 1.66 1.8 c0.16 0.02 0.04 0.68 -0.12 0.68 l-5.48 0 z M185.4845 6 c0.14 0 0.26 0.66 0.1 0.68 c-0.8 0.1 -1.6 0.4 -1.6 1.8 l0 6.26 c0 2.8 -1.38 4.58 -3.44 5.26 l0.12 0 c-1.78 0.5 -3.82 1.1 -3.82 2.4 c0 0.58 0.4 0.96 1 0.96 c0.78 0 1.34 -0.64 1.46 -0.98 c0.1 -0.28 0.72 0.06 0.54 0.52 s-1.12 1.68 -2.68 1.68 c-0.92 0 -2.32 -0.42 -2.32 -1.8 s1.74 -2.12 2.86 -2.5 c-2.62 -0.24 -5.26 -1.8 -5.26 -5.52 l0 -6.28 c0 -1.26 -0.64 -1.68 -1.62 -1.8 c-0.16 -0.02 -0.04 -0.68 0.12 -0.68 l5.46 0 c0.16 0 0.28 0.66 0.12 0.68 c-0.8 0.1 -1.6 0.4 -1.6 1.8 l0 6.38 c0 2.8 1.62 4.1 3.74 4.1 c2.18 0 3.92 -1.3 3.92 -4.1 l0 -6.38 c0 -1.3 -0.74 -1.66 -1.72 -1.8 c-0.14 -0.02 -0.04 -0.68 0.12 -0.68 l4.5 0 z M210.7435 20.2 c-0.34 0 -0.52 -0.14 -0.74 -0.38 l-9.52 -9.96 l0 7.6 c0 1.36 0.8 1.58 1.94 1.86 c0.16 0.04 0.08 0.68 -0.12 0.68 l-4.74 0 c-0.16 0 -0.28 -0.62 -0.1 -0.68 c0.84 -0.28 1.64 -0.44 1.64 -1.86 l0 -7.76 c0 -1.42 -0.22 -2.1 -0.74 -2.8 c-0.18 -0.24 -0.36 -0.4 -0.36 -0.46 c0 -0.18 0.12 -0.44 0.4 -0.44 l1.48 0 c0.2 0 0.34 0.02 0.48 0.18 l9.32 9.86 l0 -7.52 c0 -1.42 -0.9 -1.58 -1.94 -1.84 c-0.16 -0.04 -0.08 -0.68 0.12 -0.68 l4.74 0 c0.16 0 0.26 0.64 0.1 0.68 c-0.88 0.26 -1.64 0.42 -1.64 1.84 l0 7.78 c0 1.32 0.04 2.78 0.24 3.52 c0.08 0.3 -0.24 0.38 -0.56 0.38 z M232.233 19.32 c0.28 0.04 0.2 0.68 -0.04 0.68 l-5.28 0 c-0.26 0 -0.28 -0.64 -0.06 -0.68 c0.74 -0.14 1.54 -0.4 0.8 -2.12 l-0.22 -0.5 c-0.2 -0.48 -0.54 -0.52 -1.14 -0.52 l-4.08 0 c-0.6 0 -0.94 0.04 -1.14 0.52 l-0.2 0.5 c-0.7 1.72 0.06 1.98 1.02 2.12 c0.26 0.04 0.2 0.68 -0.06 0.68 l-4.32 0 c-0.24 0 -0.3 -0.64 -0.06 -0.68 c0.82 -0.14 1.3 -0.42 2.04 -2.12 l3.38 -7.76 c0.78 -1.76 1.02 -2.58 1.02 -3.34 c0 -0.12 1.4 -0.44 1.46 -0.3 l4.88 11.38 c0.72 1.7 1.2 2.02 2 2.14 z M226.15300000000002 15.059999999999999 c0.28 0 0.58 -0.04 0.46 -0.32 l-2.34 -5.6 l-2.36 5.6 c-0.12 0.28 0.18 0.32 0.46 0.32 l3.78 0 z M254.7425 19.32 c0.16 0.02 0.04 0.68 -0.1 0.68 l-5.22 0 c-0.14 0 -0.24 -0.66 -0.12 -0.68 c0.84 -0.14 1.46 -0.54 1.4 -1.8 l-0.38 -6.72 l-3.24 6.6 c-0.42 0.86 -0.74 1.74 -0.8 2.06 c-0.04 0.24 -0.46 0.36 -0.78 0.36 c-0.3 0 -0.5 -0.12 -0.62 -0.36 l-4.62 -8.76 l-0.3 6.82 c-0.06 1.4 0.76 1.72 1.4 1.8 c0.16 0.02 0.04 0.68 -0.1 0.68 l-4.14 0 c-0.16 0 -0.28 -0.66 -0.12 -0.68 c0.86 -0.1 1.58 -0.4 1.66 -1.8 l0.64 -11.48 c0.02 -0.34 0.78 -0.36 0.98 0 l5.8 10.84 l5.38 -10.84 c0.18 -0.36 0.98 -0.34 1 0 l0.64 11.48 c0.08 1.4 0.8 1.7 1.64 1.8 z M274.272 19.32 c0.28 0.04 0.2 0.68 -0.04 0.68 l-5.28 0 c-0.26 0 -0.28 -0.64 -0.06 -0.68 c0.74 -0.14 1.54 -0.4 0.8 -2.12 l-0.22 -0.5 c-0.2 -0.48 -0.54 -0.52 -1.14 -0.52 l-4.08 0 c-0.6 0 -0.94 0.04 -1.14 0.52 l-0.2 0.5 c-0.7 1.72 0.06 1.98 1.02 2.12 c0.26 0.04 0.2 0.68 -0.06 0.68 l-4.32 0 c-0.24 0 -0.3 -0.64 -0.06 -0.68 c0.82 -0.14 1.3 -0.42 2.04 -2.12 l3.38 -7.76 c0.78 -1.76 1.02 -2.58 1.02 -3.34 c0 -0.12 1.4 -0.44 1.46 -0.3 l4.88 11.38 c0.72 1.7 1.2 2.02 2 2.14 z M268.192 15.059999999999999 c0.28 0 0.58 -0.04 0.46 -0.32 l-2.34 -5.6 l-2.36 5.6 c-0.12 0.28 0.18 0.32 0.46 0.32 l3.78 0 z M279.1615 20 c-0.16 0 -0.28 -0.66 -0.12 -0.68 c1.02 -0.14 1.66 -0.54 1.66 -1.8 l0 -9.04 c0 -1.26 -0.64 -1.66 -1.66 -1.8 c-0.16 -0.02 -0.04 -0.68 0.12 -0.68 l5.48 0 c0.16 0 0.28 0.66 0.12 0.68 c-0.86 0.12 -1.66 0.4 -1.66 1.8 l0 9.04 c0 1.4 0.8 1.68 1.66 1.8 c0.16 0.02 0.04 0.68 -0.12 0.68 l-5.48 0 z"/></g>
			</g>
		</svg>
	